<svg width="232" height="33" viewBox="0 0 232 33" fill="none" xmlns="http://www.w3.org/2000/svg">
<mask id="path-1-outside-1_1_3" maskUnits="userSpaceOnUse" x="0" y="0" width="232" height="33" fill="black">
<rect fill="white" width="232" height="33"/>
<path d="M4.98864 31L1.86364 1.90909H5.44318L7.60227 25.6023H7.88636L18 1.90909H21.9773L24.25 25.6023H24.5341L34.5341 1.90909H38.1136L25.3295 31H21.6932L19.1364 7.81818H18.9091L8.625 31H4.98864ZM37.6733 31L42.5028 1.90909H46.0256L43.8665 14.8636H59.3778L61.5369 1.90909H65.0597L60.2301 31H56.7074L58.8665 17.9886H43.3551L41.196 31H37.6733ZM75.6349 1.90909L70.8054 31H67.2827L72.1122 1.90909H75.6349ZM97.3572 9.40909C97.3572 7.84659 96.8411 6.66288 95.8089 5.85795C94.7768 5.04356 93.38 4.63636 91.6186 4.63636C90.3307 4.63636 89.1707 4.8447 88.1385 5.26136C87.1063 5.67803 86.2635 6.25095 85.6101 6.98011C84.9567 7.70928 84.5542 8.53788 84.4027 9.46591C84.2796 10.2424 84.3601 10.91 84.6442 11.4687C84.9283 12.018 85.3307 12.4773 85.8516 12.8466C86.3819 13.2064 86.95 13.5047 87.5561 13.7415C88.1622 13.9687 88.7209 14.1534 89.2322 14.2955L92.0732 15.0909C92.7834 15.2898 93.5741 15.5644 94.4453 15.9148C95.3165 16.2652 96.1309 16.7434 96.8885 17.3494C97.6461 17.946 98.2237 18.7131 98.6214 19.6506C99.0286 20.5881 99.1186 21.7386 98.8913 23.1023C98.6262 24.6742 97.9775 26.0947 96.9453 27.3636C95.9226 28.6326 94.5684 29.6411 92.8828 30.3892C91.2067 31.1373 89.2512 31.5114 87.0163 31.5114C84.933 31.5114 83.1811 31.1752 81.7607 30.5028C80.3497 29.8305 79.308 28.893 78.6357 27.6903C77.9728 26.4877 77.7171 25.0909 77.8686 23.5H81.505C81.4103 24.5985 81.6281 25.5076 82.1584 26.2273C82.6887 26.9375 83.4273 27.4678 84.3743 27.8182C85.3213 28.1591 86.3724 28.3295 87.5277 28.3295C88.8724 28.3295 90.1129 28.1117 91.2493 27.6761C92.3951 27.2311 93.3421 26.6155 94.0902 25.8295C94.8478 25.0341 95.3118 24.1061 95.4822 23.0455C95.6527 22.0795 95.5201 21.2936 95.0845 20.6875C94.6489 20.0814 94.0192 19.589 93.1953 19.2102C92.3714 18.8314 91.4671 18.5 90.4822 18.2159L87.0732 17.1932C84.9141 16.5398 83.2711 15.607 82.1442 14.3949C81.0268 13.1828 80.6243 11.5966 80.9368 9.63636C81.2209 8.00757 81.9074 6.58712 82.9964 5.375C84.0855 4.15341 85.4349 3.20644 87.0447 2.53409C88.6546 1.85227 90.3875 1.51136 92.2436 1.51136C94.1186 1.51136 95.7237 1.85227 97.0589 2.53409C98.3942 3.20644 99.3885 4.1392 100.042 5.33239C100.695 6.5161 100.937 7.875 100.766 9.40909H97.3572ZM103.376 31L108.206 1.90909H111.729L109.342 16.3409H109.683L125.138 1.90909L129.74 1.90909L115.365 15.0341L124.911 31H120.649L112.808 17.4773L108.49 21.5682L106.899 31H103.376ZM130.663 31H126.97L142.482 1.90909H146.118L151.97 31H148.277L143.675 6.51136H143.447L130.663 31ZM133.902 19.6364L148.788 19.6364L148.277 22.7614L133.391 22.7614L133.902 19.6364ZM156.501 31L161.331 1.90909H171.161C173.433 1.90909 175.232 2.29261 176.558 3.05966C177.893 3.8267 178.798 4.88258 179.271 6.22727C179.754 7.57197 179.854 9.10606 179.57 10.8295C179.286 12.5341 178.679 14.0492 177.751 15.375C176.833 16.7008 175.583 17.7424 174.001 18.5C172.429 19.2576 170.517 19.6364 168.263 19.6364H160.308L160.876 16.4545H168.717C170.27 16.4545 171.558 16.2273 172.581 15.7727C173.604 15.3182 174.399 14.6695 174.967 13.8267C175.536 12.9839 175.914 11.9848 176.104 10.8295C176.293 9.6553 176.241 8.63731 175.947 7.77557C175.663 6.90436 175.081 6.23201 174.2 5.75852C173.329 5.27557 172.107 5.03409 170.536 5.03409H164.342L160.024 31H156.501ZM172.354 17.9318L177.354 31H173.263L168.376 17.9318H172.354ZM184.815 5.03409L185.326 1.90909L207.144 1.90909L206.633 5.03409H197.485L193.167 31H189.644L193.962 5.03409L184.815 5.03409ZM227.24 9.40909C227.24 7.84659 226.724 6.66288 225.692 5.85795C224.66 5.04356 223.263 4.63636 221.501 4.63636C220.214 4.63636 219.054 4.8447 218.021 5.26136C216.989 5.67803 216.146 6.25095 215.493 6.98011C214.839 7.70928 214.437 8.53788 214.286 9.46591C214.162 10.2424 214.243 10.91 214.527 11.4687C214.811 12.018 215.214 12.4773 215.734 12.8466C216.265 13.2064 216.833 13.5047 217.439 13.7415C218.045 13.9687 218.604 14.1534 219.115 14.2955L221.956 15.0909C222.666 15.2898 223.457 15.5644 224.328 15.9148C225.199 16.2652 226.014 16.7434 226.771 17.3494C227.529 17.946 228.107 18.7131 228.504 19.6506C228.911 20.5881 229.001 21.7386 228.774 23.1023C228.509 24.6742 227.86 26.0947 226.828 27.3636C225.805 28.6326 224.451 29.6411 222.766 30.3892C221.089 31.1373 219.134 31.5114 216.899 31.5114C214.816 31.5114 213.064 31.1752 211.643 30.5028C210.232 29.8305 209.191 28.893 208.518 27.6903C207.856 26.4877 207.6 25.0909 207.751 23.5H211.388C211.293 24.5985 211.511 25.5076 212.041 26.2273C212.571 26.9375 213.31 27.4678 214.257 27.8182C215.204 28.1591 216.255 28.3295 217.411 28.3295C218.755 28.3295 219.996 28.1117 221.132 27.6761C222.278 27.2311 223.225 26.6155 223.973 25.8295C224.731 25.0341 225.195 24.1061 225.365 23.0455C225.536 22.0795 225.403 21.2936 224.967 20.6875C224.532 20.0814 223.902 19.589 223.078 19.2102C222.254 18.8314 221.35 18.5 220.365 18.2159L216.956 17.1932C214.797 16.5398 213.154 15.607 212.027 14.3949C210.91 13.1828 210.507 11.5966 210.82 9.63636C211.104 8.00757 211.79 6.58712 212.879 5.375C213.968 4.15341 215.318 3.20644 216.928 2.53409C218.537 1.85227 220.27 1.51136 222.126 1.51136C224.001 1.51136 225.607 1.85227 226.942 2.53409C228.277 3.20644 229.271 4.1392 229.925 5.33239C230.578 6.5161 230.82 7.875 230.649 9.40909H227.24Z"/>
</mask>
<g filter="url(#filter0_i_1_3)">
<path d="M4.98864 31L1.86364 1.90909H5.44318L7.60227 25.6023H7.88636L18 1.90909H21.9773L24.25 25.6023H24.5341L34.5341 1.90909H38.1136L25.3295 31H21.6932L19.1364 7.81818H18.9091L8.625 31H4.98864ZM37.6733 31L42.5028 1.90909H46.0256L43.8665 14.8636H59.3778L61.5369 1.90909H65.0597L60.2301 31H56.7074L58.8665 17.9886H43.3551L41.196 31H37.6733ZM75.6349 1.90909L70.8054 31H67.2827L72.1122 1.90909H75.6349ZM97.3572 9.40909C97.3572 7.84659 96.8411 6.66288 95.8089 5.85795C94.7768 5.04356 93.38 4.63636 91.6186 4.63636C90.3307 4.63636 89.1707 4.8447 88.1385 5.26136C87.1063 5.67803 86.2635 6.25095 85.6101 6.98011C84.9567 7.70928 84.5542 8.53788 84.4027 9.46591C84.2796 10.2424 84.3601 10.91 84.6442 11.4687C84.9283 12.018 85.3307 12.4773 85.8516 12.8466C86.3819 13.2064 86.95 13.5047 87.5561 13.7415C88.1622 13.9687 88.7209 14.1534 89.2322 14.2955L92.0732 15.0909C92.7834 15.2898 93.5741 15.5644 94.4453 15.9148C95.3165 16.2652 96.1309 16.7434 96.8885 17.3494C97.6461 17.946 98.2237 18.7131 98.6214 19.6506C99.0286 20.5881 99.1186 21.7386 98.8913 23.1023C98.6262 24.6742 97.9775 26.0947 96.9453 27.3636C95.9226 28.6326 94.5684 29.6411 92.8828 30.3892C91.2067 31.1373 89.2512 31.5114 87.0163 31.5114C84.933 31.5114 83.1811 31.1752 81.7607 30.5028C80.3497 29.8305 79.308 28.893 78.6357 27.6903C77.9728 26.4877 77.7171 25.0909 77.8686 23.5H81.505C81.4103 24.5985 81.6281 25.5076 82.1584 26.2273C82.6887 26.9375 83.4273 27.4678 84.3743 27.8182C85.3213 28.1591 86.3724 28.3295 87.5277 28.3295C88.8724 28.3295 90.1129 28.1117 91.2493 27.6761C92.3951 27.2311 93.3421 26.6155 94.0902 25.8295C94.8478 25.0341 95.3118 24.1061 95.4822 23.0455C95.6527 22.0795 95.5201 21.2936 95.0845 20.6875C94.6489 20.0814 94.0192 19.589 93.1953 19.2102C92.3714 18.8314 91.4671 18.5 90.4822 18.2159L87.0732 17.1932C84.9141 16.5398 83.2711 15.607 82.1442 14.3949C81.0268 13.1828 80.6243 11.5966 80.9368 9.63636C81.2209 8.00757 81.9074 6.58712 82.9964 5.375C84.0855 4.15341 85.4349 3.20644 87.0447 2.53409C88.6546 1.85227 90.3875 1.51136 92.2436 1.51136C94.1186 1.51136 95.7237 1.85227 97.0589 2.53409C98.3942 3.20644 99.3885 4.1392 100.042 5.33239C100.695 6.5161 100.937 7.875 100.766 9.40909H97.3572ZM103.376 31L108.206 1.90909H111.729L109.342 16.3409H109.683L125.138 1.90909L129.74 1.90909L115.365 15.0341L124.911 31H120.649L112.808 17.4773L108.49 21.5682L106.899 31H103.376ZM130.663 31H126.97L142.482 1.90909H146.118L151.97 31H148.277L143.675 6.51136H143.447L130.663 31ZM133.902 19.6364L148.788 19.6364L148.277 22.7614L133.391 22.7614L133.902 19.6364ZM156.501 31L161.331 1.90909H171.161C173.433 1.90909 175.232 2.29261 176.558 3.05966C177.893 3.8267 178.798 4.88258 179.271 6.22727C179.754 7.57197 179.854 9.10606 179.57 10.8295C179.286 12.5341 178.679 14.0492 177.751 15.375C176.833 16.7008 175.583 17.7424 174.001 18.5C172.429 19.2576 170.517 19.6364 168.263 19.6364H160.308L160.876 16.4545H168.717C170.27 16.4545 171.558 16.2273 172.581 15.7727C173.604 15.3182 174.399 14.6695 174.967 13.8267C175.536 12.9839 175.914 11.9848 176.104 10.8295C176.293 9.6553 176.241 8.63731 175.947 7.77557C175.663 6.90436 175.081 6.23201 174.2 5.75852C173.329 5.27557 172.107 5.03409 170.536 5.03409H164.342L160.024 31H156.501ZM172.354 17.9318L177.354 31H173.263L168.376 17.9318H172.354ZM184.815 5.03409L185.326 1.90909L207.144 1.90909L206.633 5.03409H197.485L193.167 31H189.644L193.962 5.03409L184.815 5.03409ZM227.24 9.40909C227.24 7.84659 226.724 6.66288 225.692 5.85795C224.66 5.04356 223.263 4.63636 221.501 4.63636C220.214 4.63636 219.054 4.8447 218.021 5.26136C216.989 5.67803 216.146 6.25095 215.493 6.98011C214.839 7.70928 214.437 8.53788 214.286 9.46591C214.162 10.2424 214.243 10.91 214.527 11.4687C214.811 12.018 215.214 12.4773 215.734 12.8466C216.265 13.2064 216.833 13.5047 217.439 13.7415C218.045 13.9687 218.604 14.1534 219.115 14.2955L221.956 15.0909C222.666 15.2898 223.457 15.5644 224.328 15.9148C225.199 16.2652 226.014 16.7434 226.771 17.3494C227.529 17.946 228.107 18.7131 228.504 19.6506C228.911 20.5881 229.001 21.7386 228.774 23.1023C228.509 24.6742 227.86 26.0947 226.828 27.3636C225.805 28.6326 224.451 29.6411 222.766 30.3892C221.089 31.1373 219.134 31.5114 216.899 31.5114C214.816 31.5114 213.064 31.1752 211.643 30.5028C210.232 29.8305 209.191 28.893 208.518 27.6903C207.856 26.4877 207.6 25.0909 207.751 23.5H211.388C211.293 24.5985 211.511 25.5076 212.041 26.2273C212.571 26.9375 213.31 27.4678 214.257 27.8182C215.204 28.1591 216.255 28.3295 217.411 28.3295C218.755 28.3295 219.996 28.1117 221.132 27.6761C222.278 27.2311 223.225 26.6155 223.973 25.8295C224.731 25.0341 225.195 24.1061 225.365 23.0455C225.536 22.0795 225.403 21.2936 224.967 20.6875C224.532 20.0814 223.902 19.589 223.078 19.2102C222.254 18.8314 221.35 18.5 220.365 18.2159L216.956 17.1932C214.797 16.5398 213.154 15.607 212.027 14.3949C210.91 13.1828 210.507 11.5966 210.82 9.63636C211.104 8.00757 211.79 6.58712 212.879 5.375C213.968 4.15341 215.318 3.20644 216.928 2.53409C218.537 1.85227 220.27 1.51136 222.126 1.51136C224.001 1.51136 225.607 1.85227 226.942 2.53409C228.277 3.20644 229.271 4.1392 229.925 5.33239C230.578 6.5161 230.82 7.875 230.649 9.40909H227.24Z" fill="#E57F54"/>
</g>
<path d="M4.98864 31L3.99436 31.1068L4.09031 32H4.98864V31ZM1.86364 1.90909V0.90909H0.750462L0.869357 2.0159L1.86364 1.90909ZM5.44318 1.90909L6.43906 1.81834L6.3562 0.90909H5.44318V1.90909ZM7.60227 25.6023L6.6064 25.693L6.68926 26.6023H7.60227V25.6023ZM7.88636 25.6023V26.6023H8.5468L8.80608 25.9949L7.88636 25.6023ZM18 1.90909V0.90909H17.3396L17.0803 1.5165L18 1.90909ZM21.9773 1.90909L22.9727 1.81361L22.8859 0.90909H21.9773V1.90909ZM24.25 25.6023L23.2546 25.6978L23.3413 26.6023H24.25V25.6023ZM24.5341 25.6023V26.6023H25.1975L25.4554 25.9911L24.5341 25.6023ZM34.5341 1.90909V0.90909H33.8707L33.6128 1.52024L34.5341 1.90909ZM38.1136 1.90909L39.0291 2.31141L39.6454 0.90909H38.1136V1.90909ZM25.3295 31V32H25.9824L26.245 31.4023L25.3295 31ZM21.6932 31L20.6992 31.1096L20.7974 32H21.6932V31ZM19.1364 7.81818L20.1303 7.70855L20.0321 6.81818H19.1364V7.81818ZM18.9091 7.81818V6.81818H18.2587L17.995 7.41267L18.9091 7.81818ZM8.625 31V32H9.27536L9.53909 31.4055L8.625 31ZM5.98292 30.8932L2.85792 1.80228L0.869357 2.0159L3.99436 31.1068L5.98292 30.8932ZM1.86364 2.90909H5.44318V0.90909H1.86364L1.86364 2.90909ZM4.44731 1.99984L6.6064 25.693L8.59815 25.5115L6.43906 1.81834L4.44731 1.99984ZM7.60227 26.6023H7.88636V24.6023H7.60227V26.6023ZM8.80608 25.9949L18.9197 2.30168L17.0803 1.5165L6.96665 25.2097L8.80608 25.9949ZM18 2.90909H21.9773V0.90909H18V2.90909ZM20.9818 2.00457L23.2546 25.6978L25.2454 25.5068L22.9727 1.81361L20.9818 2.00457ZM24.25 26.6023H24.5341V24.6023H24.25V26.6023ZM25.4554 25.9911L35.4554 2.29794L33.6128 1.52024L23.6128 25.2134L25.4554 25.9911ZM34.5341 2.90909H38.1136V0.90909H34.5341V2.90909ZM37.1981 1.50677L24.414 30.5977L26.245 31.4023L39.0291 2.31141L37.1981 1.50677ZM25.3295 30H21.6932V32H25.3295V30ZM22.6872 30.8904L20.1303 7.70855L18.1424 7.92781L20.6992 31.1096L22.6872 30.8904ZM19.1364 6.81818H18.9091V8.81818H19.1364V6.81818ZM17.995 7.41267L7.71091 30.5945L9.53909 31.4055L19.8232 8.2237L17.995 7.41267ZM8.625 30H4.98864V32H8.625V30ZM37.6733 31L36.6868 30.8362L36.4936 32H37.6733V31ZM42.5028 1.90909V0.90909H41.6552L41.5163 1.74532L42.5028 1.90909ZM46.0256 1.90909L47.012 2.07349L47.206 0.90909H46.0256V1.90909ZM43.8665 14.8636L42.8801 14.6992L42.686 15.8636H43.8665V14.8636ZM59.3778 14.8636V15.8636H60.225L60.3642 15.028L59.3778 14.8636ZM61.5369 1.90909V0.90909H60.6898L60.5505 1.74469L61.5369 1.90909ZM65.0597 1.90909L66.0462 2.07286L66.2394 0.90909H65.0597V1.90909ZM60.2301 31V32H61.0778L61.2166 31.1638L60.2301 31ZM56.7074 31L55.7209 30.8363L55.5278 32L56.7074 32V31ZM58.8665 17.9886L59.853 18.1523L60.0461 16.9886H58.8665V17.9886ZM43.3551 17.9886V16.9886H42.5074L42.3686 17.8249L43.3551 17.9886ZM41.196 31V32H42.0438L42.1825 31.1637L41.196 31ZM38.6598 31.1638L43.4893 2.07286L41.5163 1.74532L36.6868 30.8362L38.6598 31.1638ZM42.5028 2.90909H46.0256V0.90909H42.5028V2.90909ZM45.0392 1.74469L42.8801 14.6992L44.8529 15.028L47.012 2.07349L45.0392 1.74469ZM43.8665 15.8636H59.3778V13.8636H43.8665V15.8636ZM60.3642 15.028L62.5233 2.07349L60.5505 1.74469L58.3914 14.6992L60.3642 15.028ZM61.5369 2.90909H65.0597V0.90909H61.5369V2.90909ZM64.0732 1.74532L59.2436 30.8362L61.2166 31.1638L66.0462 2.07286L64.0732 1.74532ZM60.2301 30H56.7074V32H60.2301V30ZM57.6939 31.1637L59.853 18.1523L57.88 17.8249L55.7209 30.8363L57.6939 31.1637ZM58.8665 16.9886H43.3551V18.9886H58.8665V16.9886ZM42.3686 17.8249L40.2095 30.8363L42.1825 31.1637L44.3416 18.1523L42.3686 17.8249ZM41.196 30H37.6733V32H41.196V30ZM75.6349 1.90909L76.6214 2.07286L76.8146 0.90909H75.6349V1.90909ZM70.8054 31V32H71.6531L71.7919 31.1638L70.8054 31ZM67.2827 31L66.2962 30.8362L66.103 32H67.2827V31ZM72.1122 1.90909V0.90909H71.2645L71.1257 1.74532L72.1122 1.90909ZM74.6484 1.74532L69.8189 30.8362L71.7919 31.1638L76.6214 2.07286L74.6484 1.74532ZM70.8054 30H67.2827V32H70.8054V30ZM68.2692 31.1638L73.0987 2.07286L71.1257 1.74532L66.2962 30.8362L68.2692 31.1638ZM72.1122 2.90909H75.6349V0.90909H72.1122V2.90909ZM97.3572 9.40909H96.3572V10.4091H97.3572V9.40909ZM95.809 5.85795L95.1895 6.64303L95.194 6.64653L95.809 5.85795ZM88.1385 5.26136L88.5128 6.18866L88.1385 5.26136ZM85.6101 6.98011L86.3548 7.64747L85.6101 6.98011ZM84.4027 9.46591L83.4158 9.30477L83.415 9.30933L84.4027 9.46591ZM84.6442 11.4687L83.7528 11.922L83.756 11.9282L84.6442 11.4687ZM85.8516 12.8466L85.2731 13.6623L85.2815 13.6683L85.2901 13.6741L85.8516 12.8466ZM87.5561 13.7415L87.1922 14.673L87.205 14.6778L87.5561 13.7415ZM89.2322 14.2955L89.5019 13.3325L89.4999 13.3319L89.2322 14.2955ZM92.0732 15.0909L91.8035 16.0539H91.8035L92.0732 15.0909ZM94.4453 15.9148L94.0722 16.8426L94.4453 15.9148ZM96.8885 17.3494L96.2638 18.1303L96.2698 18.1351L96.8885 17.3494ZM98.6215 19.6506L97.7008 20.0411L97.7042 20.049L98.6215 19.6506ZM98.8913 23.1023L99.8774 23.2686L99.8777 23.2667L98.8913 23.1023ZM96.9453 27.3636L96.1695 26.7326L96.1667 26.7361L96.9453 27.3636ZM92.8828 30.3892L92.4771 29.4752L92.4752 29.476L92.8828 30.3892ZM81.7607 30.5028L81.3305 31.4056L81.3328 31.4067L81.7607 30.5028ZM78.6357 27.6903L77.7599 28.1731L77.7628 28.1783L78.6357 27.6903ZM77.8686 23.5V22.5H76.9593L76.8731 23.4052L77.8686 23.5ZM81.505 23.5L82.5013 23.5859L82.5949 22.5H81.505V23.5ZM82.1584 26.2273L81.3533 26.8205L81.3571 26.8256L82.1584 26.2273ZM84.3743 27.8182L84.0273 28.7561L84.0356 28.7591L84.3743 27.8182ZM91.2493 27.6761L91.6072 28.6099L91.6114 28.6083L91.2493 27.6761ZM94.0902 25.8295L93.3661 25.1399L93.3659 25.1401L94.0902 25.8295ZM95.4822 23.0455L94.4975 22.8717L94.4961 22.8792L94.4949 22.8868L95.4822 23.0455ZM95.0845 20.6875L94.2725 21.2711L95.0845 20.6875ZM93.1953 19.2102L92.7776 20.1188L93.1953 19.2102ZM90.4822 18.2159L90.1949 19.1738L90.2051 19.1767L90.4822 18.2159ZM87.0732 17.1932L86.7835 18.1503L86.7858 18.151L87.0732 17.1932ZM82.1442 14.3949L81.4089 15.0727L81.4118 15.0758L82.1442 14.3949ZM80.9368 9.63636L79.9517 9.46454L79.9504 9.47173L79.9493 9.47893L80.9368 9.63636ZM82.9965 5.375L83.7403 6.04333L83.7429 6.04044L82.9965 5.375ZM87.0447 2.53409L87.4301 3.45686L87.4347 3.45491L87.0447 2.53409ZM97.059 2.53409L96.6042 3.42471L96.6092 3.42725L97.059 2.53409ZM100.042 5.33239L99.1648 5.8127L99.1664 5.81565L100.042 5.33239ZM100.766 9.40909V10.4091H101.661L101.76 9.51952L100.766 9.40909ZM98.3572 9.40909C98.3572 7.60519 97.7473 6.10137 96.4239 5.06938L95.194 6.64653C95.935 7.22439 96.3572 8.088 96.3572 9.40909H98.3572ZM96.4284 5.07289C95.168 4.07849 93.5286 3.63636 91.6186 3.63636V5.63636C93.2314 5.63636 94.3855 6.00863 95.1895 6.64302L96.4284 5.07289ZM91.6186 3.63636C90.2223 3.63636 88.9325 3.86245 87.7642 4.33406L88.5128 6.18866C89.4089 5.82694 90.4391 5.63636 91.6186 5.63636V3.63636ZM87.7642 4.33406C86.6098 4.80007 85.6339 5.45509 84.8653 6.31275L86.3548 7.64747C86.8931 7.0468 87.6028 6.55599 88.5128 6.18866L87.7642 4.33406ZM84.8653 6.31275C84.0901 7.17791 83.5993 8.18033 83.4158 9.30478L85.3896 9.62704C85.5091 8.89543 85.8233 8.24064 86.3548 7.64747L84.8653 6.31275ZM83.415 9.30933C83.2674 10.2407 83.3512 11.1321 83.7528 11.922L85.5356 11.0155C85.369 10.688 85.2918 10.2442 85.3904 9.62249L83.415 9.30933ZM83.756 11.9282C84.1158 12.6239 84.6265 13.2038 85.2731 13.6623L86.43 12.0309C86.035 11.7508 85.7407 11.4121 85.5324 11.0093L83.756 11.9282ZM85.2901 13.6741C85.8831 14.0765 86.5177 14.4094 87.1923 14.6729L87.92 12.81C87.3824 12.6 86.8806 12.3364 86.4131 12.0191L85.2901 13.6741ZM87.205 14.6778C87.8328 14.9132 88.4197 15.1076 88.9646 15.259L89.4999 13.3319C89.022 13.1992 88.4916 13.0243 87.9072 12.8051L87.205 14.6778ZM88.9626 15.2584L91.8035 16.0539L92.3428 14.1279L89.5019 13.3325L88.9626 15.2584ZM91.8035 16.0539C92.4707 16.2407 93.2262 16.5023 94.0722 16.8426L94.8184 14.987C93.922 14.6265 93.0961 14.3389 92.3428 14.1279L91.8035 16.0539ZM94.0722 16.8426C94.8498 17.1553 95.5799 17.5832 96.2638 18.1303L97.5132 16.5686C96.6819 15.9036 95.7832 15.375 94.8184 14.987L94.0722 16.8426ZM96.2698 18.1351C96.8876 18.6216 97.3651 19.2496 97.7009 20.0411L99.542 19.26C99.0824 18.1765 98.4045 17.2704 97.5072 16.5638L96.2698 18.1351ZM97.7042 20.049C98.0119 20.7572 98.1114 21.6993 97.9049 22.9379L99.8777 23.2667C100.126 21.7779 100.045 20.4189 99.5387 19.2522L97.7042 20.049ZM97.9053 22.9359C97.6696 24.3329 97.0956 25.5941 96.1696 26.7326L97.7211 27.9947C98.8594 26.5953 99.5827 25.0156 99.8774 23.2686L97.9053 22.9359ZM96.1667 26.7361C95.2562 27.8658 94.0367 28.783 92.4771 29.4752L93.2885 31.3032C95.1001 30.4992 96.589 29.3993 97.7239 27.9912L96.1667 26.7361ZM92.4752 29.476C90.9521 30.1559 89.1406 30.5114 87.0163 30.5114V32.5114C89.3617 32.5114 91.4613 32.1188 93.2904 31.3024L92.4752 29.476ZM87.0163 30.5114C85.035 30.5114 83.4391 30.1909 82.1885 29.599L81.3328 31.4067C82.9231 32.1595 84.831 32.5114 87.0163 32.5114V30.5114ZM82.1908 29.6001C80.9407 29.0044 80.0666 28.2006 79.5085 27.2024L77.7628 28.1783C78.5495 29.5854 79.7587 30.6566 81.3305 31.4056L82.1908 29.6001ZM79.5114 27.2076C78.9607 26.2085 78.7284 25.0192 78.8641 23.5948L76.8731 23.4052C76.7057 25.1626 76.9848 26.7669 77.7599 28.1731L79.5114 27.2076ZM77.8686 24.5H81.505V22.5H77.8686V24.5ZM80.5087 23.4141C80.3982 24.6959 80.6474 25.8624 81.3533 26.8205L82.9634 25.6341C82.6088 25.1528 82.4224 24.5011 82.5013 23.5859L80.5087 23.4141ZM81.3571 26.8256C82.0184 27.7112 82.9252 28.3483 84.0273 28.756L84.7213 26.8803C83.9295 26.5873 83.359 26.1638 82.9597 25.629L81.3571 26.8256ZM84.0356 28.7591C85.106 29.1444 86.2737 29.3295 87.5277 29.3295V27.3295C86.471 27.3295 85.5366 27.1738 84.713 26.8773L84.0356 28.7591ZM87.5277 29.3295C88.9819 29.3295 90.3452 29.0937 91.6072 28.6099L90.8914 26.7424C89.8806 27.1298 88.7629 27.3295 87.5277 27.3295V29.3295ZM91.6114 28.6083C92.8761 28.117 93.9523 27.4249 94.8145 26.519L93.3659 25.1401C92.7319 25.8062 91.9142 26.3451 90.8872 26.744L91.6114 28.6083ZM94.8143 26.5192C95.7079 25.5809 96.2663 24.469 96.4696 23.2041L94.4949 22.8868C94.3573 23.7431 93.9876 24.4872 93.3661 25.1399L94.8143 26.5192ZM96.467 23.2192C96.669 22.0748 96.5344 20.9914 95.8965 20.1039L94.2725 21.2711C94.5058 21.5958 94.6364 22.0843 94.4975 22.8717L96.467 23.2192ZM95.8965 20.1039C95.3402 19.3299 94.5606 18.7373 93.613 18.3017L92.7776 20.1188C93.4778 20.4407 93.9576 20.833 94.2725 21.2711L95.8965 20.1039ZM93.613 18.3017C92.7383 17.8995 91.7863 17.5513 90.7594 17.2551L90.2051 19.1767C91.1479 19.4487 92.0046 19.7634 92.7776 20.1188L93.613 18.3017ZM90.7696 17.2581L87.3605 16.2354L86.7858 18.151L90.1949 19.1737L90.7696 17.2581ZM87.3628 16.2361C85.3141 15.616 83.8469 14.7577 82.8766 13.714L81.4118 15.0758C82.6952 16.4563 84.514 17.4635 86.7835 18.1503L87.3628 16.2361ZM82.8794 13.7171C82.0125 12.7767 81.6491 11.5203 81.9243 9.79379L79.9493 9.47893C79.5995 11.6729 80.041 13.5889 81.4089 15.0727L82.8794 13.7171ZM81.9219 9.80819C82.1743 8.36139 82.7786 7.11371 83.7403 6.04332L82.2526 4.70668C81.0362 6.06053 80.2675 7.65376 79.9517 9.46454L81.9219 9.80819ZM83.7429 6.04044C84.7258 4.93786 85.9491 4.07541 87.4301 3.45685L86.6594 1.61133C84.9207 2.33747 83.4451 3.36896 82.25 4.70956L83.7429 6.04044ZM87.4347 3.45491C88.9137 2.82852 90.5132 2.51136 92.2436 2.51136V0.511362C90.2619 0.511362 88.3955 0.876026 86.6548 1.61327L87.4347 3.45491ZM92.2436 2.51136C93.9993 2.51136 95.4406 2.83055 96.6042 3.4247L97.5137 1.64349C96.0068 0.873991 94.238 0.511362 92.2436 0.511362V2.51136ZM96.6092 3.42725C97.7822 4.01788 98.6183 4.81479 99.1648 5.8127L100.919 4.85207C100.159 3.46362 99.0062 2.39499 97.5087 1.64093L96.6092 3.42725ZM99.1664 5.81565C99.7063 6.79359 99.9234 7.93979 99.7725 9.29866L101.76 9.51952C101.95 7.81021 101.684 6.23861 100.917 4.84912L99.1664 5.81565ZM100.766 8.40909H97.3572V10.4091H100.766V8.40909ZM103.376 31L102.39 30.8362L102.197 32H103.376V31ZM108.206 1.90909V0.90909H107.358L107.219 1.74532L108.206 1.90909ZM111.729 1.90909L112.715 2.07223L112.908 0.90909H111.729V1.90909ZM109.342 16.3409L108.356 16.1778L108.163 17.3409H109.342V16.3409ZM109.683 16.3409V17.3409H110.078L110.366 17.0718L109.683 16.3409ZM125.138 1.90909V0.90909H124.743L124.455 1.17821L125.138 1.90909ZM129.74 1.90909L130.414 2.64758L132.318 0.90909H129.74V1.90909ZM115.365 15.0341L114.691 14.2956L114.088 14.8463L114.507 15.5472L115.365 15.0341ZM124.911 31V32H126.673L125.769 30.4869L124.911 31ZM120.649 31L119.784 31.5016L120.073 32H120.649V31ZM112.808 17.4773L113.673 16.9757L113.039 15.8813L112.12 16.7513L112.808 17.4773ZM108.49 21.5682L107.802 20.8422L107.56 21.0722L107.504 21.4019L108.49 21.5682ZM106.899 31V32H107.745L107.885 31.1663L106.899 31ZM104.363 31.1638L109.192 2.07286L107.219 1.74532L102.39 30.8362L104.363 31.1638ZM108.206 2.90909H111.729V0.90909H108.206V2.90909ZM110.742 1.74595L108.356 16.1778L110.329 16.504L112.715 2.07223L110.742 1.74595ZM109.342 17.3409H109.683V15.3409H109.342V17.3409ZM110.366 17.0718L125.82 2.63997L124.455 1.17821L109.001 15.61L110.366 17.0718ZM125.138 2.90909L129.74 2.90909V0.90909L125.138 0.90909V2.90909ZM129.066 1.1706L114.691 14.2956L116.039 15.7726L130.414 2.64758L129.066 1.1706ZM114.507 15.5472L124.052 31.5131L125.769 30.4869L116.223 14.5209L114.507 15.5472ZM124.911 30H120.649V32H124.911V30ZM121.514 30.4984L113.673 16.9757L111.943 17.9789L119.784 31.5016L121.514 30.4984ZM112.12 16.7513L107.802 20.8422L109.178 22.2941L113.496 18.2032L112.12 16.7513ZM107.504 21.4019L105.913 30.8337L107.885 31.1663L109.476 21.7345L107.504 21.4019ZM106.899 30H103.376V32H106.899V30ZM130.663 31V32H131.269L131.55 31.4628L130.663 31ZM126.97 31L126.088 30.5295L125.304 32H126.97V31ZM142.482 1.90909V0.90909H141.881L141.599 1.43859L142.482 1.90909ZM146.118 1.90909L147.098 1.71187L146.937 0.90909H146.118V1.90909ZM151.97 31V32H153.191L152.951 30.8028L151.97 31ZM148.277 31L147.294 31.1847L147.447 32H148.277V31ZM143.675 6.51136L144.658 6.32666L144.504 5.51136H143.675V6.51136ZM143.447 6.51136V5.51136H142.841L142.561 6.04859L143.447 6.51136ZM133.902 19.6364V18.6364H133.052L132.915 19.4749L133.902 19.6364ZM148.788 19.6364L149.775 19.7979L149.965 18.6364H148.788V19.6364ZM148.277 22.7614V23.7614H149.127L149.264 22.9229L148.277 22.7614ZM133.391 22.7614L132.404 22.5999L132.214 23.7614H133.391V22.7614ZM130.663 30H126.97V32H130.663V30ZM127.853 31.4705L143.364 2.37959L141.599 1.43859L126.088 30.5295L127.853 31.4705ZM142.482 2.90909H146.118V0.90909H142.482V2.90909ZM145.138 2.10631L150.99 31.1972L152.951 30.8028L147.098 1.71187L145.138 2.10631ZM151.97 30H148.277V32H151.97V30ZM149.26 30.8153L144.658 6.32666L142.692 6.69606L147.294 31.1847L149.26 30.8153ZM143.675 5.51136H143.447V7.51136H143.675V5.51136ZM142.561 6.04859L129.777 30.5372L131.55 31.4628L144.334 6.97414L142.561 6.04859ZM133.902 20.6364L148.788 20.6364V18.6364L133.902 18.6364V20.6364ZM147.801 19.4749L147.29 22.5999L149.264 22.9229L149.775 19.7979L147.801 19.4749ZM148.277 21.7614L133.391 21.7614V23.7614L148.277 23.7614V21.7614ZM134.378 22.9229L134.889 19.7979L132.915 19.4749L132.404 22.5999L134.378 22.9229ZM156.501 31L155.515 30.8362L155.322 32H156.501V31ZM161.331 1.90909V0.90909H160.483L160.344 1.74532L161.331 1.90909ZM176.558 3.05966L176.057 3.92523L176.06 3.92676L176.558 3.05966ZM179.271 6.22727L178.328 6.5594L178.33 6.56529L179.271 6.22727ZM179.57 10.8295L180.556 10.9939L180.556 10.9922L179.57 10.8295ZM177.751 15.375L176.932 14.8015L176.929 14.8055L177.751 15.375ZM174.001 18.5L173.569 17.5981L173.567 17.5992L174.001 18.5ZM160.308 19.6364L159.324 19.4606L159.114 20.6364H160.308V19.6364ZM160.876 16.4545V15.4545H160.039L159.892 16.2788L160.876 16.4545ZM172.581 15.7727L172.175 14.8589H172.175L172.581 15.7727ZM174.967 13.8267L174.138 13.2677L174.967 13.8267ZM176.104 10.8295L177.091 10.9913L177.091 10.9888L176.104 10.8295ZM175.947 7.77557L174.997 8.08562L175.001 8.09803L175.947 7.77557ZM174.2 5.75852L173.715 6.6332L173.727 6.6393L174.2 5.75852ZM164.342 5.03409V4.03409H163.495L163.356 4.87004L164.342 5.03409ZM160.024 31V32H160.872L161.011 31.164L160.024 31ZM172.354 17.9318L173.288 17.5745L173.042 16.9318H172.354V17.9318ZM177.354 31V32H178.807L178.288 30.6427L177.354 31ZM173.263 31L172.326 31.3502L172.569 32H173.263V31ZM168.376 17.9318V16.9318H166.935L167.44 18.282L168.376 17.9318ZM157.488 31.1638L162.317 2.07286L160.344 1.74532L155.515 30.8362L157.488 31.1638ZM161.331 2.90909H171.161V0.90909H161.331V2.90909ZM171.161 2.90909C173.337 2.90909 174.94 3.27883 176.057 3.92523L177.059 2.19409C175.525 1.30639 173.53 0.90909 171.161 0.90909V2.90909ZM176.06 3.92676C177.206 4.58485 177.941 5.45938 178.328 6.5594L180.215 5.89515C179.655 4.30577 178.581 3.06856 177.056 2.19255L176.06 3.92676ZM178.33 6.56529C178.744 7.71769 178.845 9.07436 178.583 10.6669L180.556 10.9922C180.862 9.13776 180.764 7.42625 180.212 5.88926L178.33 6.56529ZM178.583 10.6651C178.322 12.2328 177.769 13.6061 176.932 14.8015L178.571 15.9485C179.59 14.4923 180.249 12.8354 180.556 10.9939L178.583 10.6651ZM176.929 14.8055C176.118 15.9762 175.008 16.9089 173.569 17.5981L174.433 19.4019C176.157 18.576 177.547 17.4253 178.573 15.9445L176.929 14.8055ZM173.567 17.5992C172.164 18.2753 170.408 18.6364 168.263 18.6364V20.6364C170.625 20.6364 172.695 20.2398 174.436 19.4008L173.567 17.5992ZM168.263 18.6364H160.308V20.6364H168.263V18.6364ZM161.293 19.8122L161.861 16.6303L159.892 16.2788L159.324 19.4606L161.293 19.8122ZM160.876 17.4545H168.717V15.4545H160.876V17.4545ZM168.717 17.4545C170.36 17.4545 171.797 17.2154 172.987 16.6865L172.175 14.8589C171.319 15.2391 170.181 15.4545 168.717 15.4545V17.4545ZM172.987 16.6865C174.163 16.1637 175.113 15.3996 175.797 14.3857L174.138 13.2677C173.685 13.9394 173.044 14.4726 172.175 14.8589L172.987 16.6865ZM175.797 14.3857C176.457 13.4066 176.881 12.2673 177.091 10.9913L175.117 10.6678C174.947 11.7024 174.614 12.5613 174.138 13.2677L175.797 14.3857ZM177.091 10.9888C177.299 9.70092 177.254 8.50984 176.894 7.45311L175.001 8.09803C175.228 8.76477 175.288 9.60968 175.116 10.6703L177.091 10.9888ZM176.898 7.46555C176.527 6.32646 175.758 5.46089 174.674 4.87775L173.727 6.6393C174.403 7.00312 174.8 7.48225 174.997 8.08559L176.898 7.46555ZM174.685 4.88392C173.604 4.28439 172.188 4.03409 170.536 4.03409V6.03409C172.027 6.03409 173.055 6.26674 173.715 6.63313L174.685 4.88392ZM170.536 4.03409H164.342V6.03409H170.536V4.03409ZM163.356 4.87004L159.038 30.836L161.011 31.164L165.329 5.19814L163.356 4.87004ZM160.024 30H156.501V32H160.024V30ZM171.42 18.2892L176.42 31.3573L178.288 30.6427L173.288 17.5745L171.42 18.2892ZM177.354 30H173.263V32H177.354V30ZM174.199 30.6498L169.313 17.5816L167.44 18.282L172.326 31.3502L174.199 30.6498ZM168.376 18.9318H172.354V16.9318H168.376V18.9318ZM184.815 5.03409L183.828 4.8726L183.638 6.03409H184.815V5.03409ZM185.326 1.90909V0.90909H184.476L184.339 1.7476L185.326 1.90909ZM207.144 1.90909L208.131 2.07058L208.321 0.90909H207.144V1.90909ZM206.633 5.03409V6.03409H207.482L207.62 5.19558L206.633 5.03409ZM197.485 5.03409V4.03409H196.638L196.499 4.87004L197.485 5.03409ZM193.167 31V32H194.014L194.153 31.164L193.167 31ZM189.644 31L188.658 30.836L188.464 32H189.644V31ZM193.962 5.03409L194.949 5.19814L195.142 4.03409H193.962V5.03409ZM185.801 5.19558L186.313 2.07058L184.339 1.7476L183.828 4.8726L185.801 5.19558ZM185.326 2.90909L207.144 2.90909V0.90909L185.326 0.90909V2.90909ZM206.157 1.7476L205.646 4.8726L207.62 5.19558L208.131 2.07058L206.157 1.7476ZM206.633 4.03409H197.485V6.03409H206.633V4.03409ZM196.499 4.87004L192.18 30.836L194.153 31.164L198.472 5.19814L196.499 4.87004ZM193.167 30H189.644V32H193.167V30ZM190.631 31.164L194.949 5.19814L192.976 4.87004L188.658 30.836L190.631 31.164ZM193.962 4.03409L184.815 4.03409V6.03409L193.962 6.03409V4.03409ZM227.24 9.40909H226.24V10.4091H227.24V9.40909ZM225.692 5.85795L225.072 6.64303L225.077 6.64653L225.692 5.85795ZM218.021 5.26136L218.396 6.18866L218.021 5.26136ZM215.493 6.98011L216.238 7.64747L215.493 6.98011ZM214.286 9.46591L213.299 9.30477L213.298 9.30933L214.286 9.46591ZM214.527 11.4687L213.636 11.922L213.639 11.9282L214.527 11.4687ZM215.734 12.8466L215.156 13.6623L215.164 13.6683L215.173 13.6741L215.734 12.8466ZM217.439 13.7415L217.075 14.673L217.088 14.6778L217.439 13.7415ZM219.115 14.2955L219.385 13.3325L219.383 13.3319L219.115 14.2955ZM221.956 15.0909L221.686 16.0539L221.956 15.0909ZM224.328 15.9148L223.955 16.8426L224.328 15.9148ZM226.771 17.3494L226.147 18.1303L226.153 18.1351L226.771 17.3494ZM228.504 19.6506L227.584 20.0411L227.587 20.049L228.504 19.6506ZM228.774 23.1023L229.76 23.2686L229.761 23.2667L228.774 23.1023ZM226.828 27.3636L226.052 26.7326L226.05 26.7361L226.828 27.3636ZM222.766 30.3892L222.36 29.4752L222.358 29.476L222.766 30.3892ZM211.643 30.5028L211.213 31.4056L211.216 31.4067L211.643 30.5028ZM208.518 27.6903L207.643 28.1731L207.646 28.1783L208.518 27.6903ZM207.751 23.5V22.5H206.842L206.756 23.4052L207.751 23.5ZM211.388 23.5L212.384 23.5859L212.478 22.5H211.388V23.5ZM212.041 26.2273L211.236 26.8205L211.24 26.8256L212.041 26.2273ZM214.257 27.8182L213.91 28.7561L213.918 28.7591L214.257 27.8182ZM221.132 27.6761L221.49 28.6099L221.494 28.6083L221.132 27.6761ZM223.973 25.8295L223.249 25.1399L223.249 25.1401L223.973 25.8295ZM225.365 23.0455L224.38 22.8717L224.379 22.8792L224.378 22.8868L225.365 23.0455ZM224.967 20.6875L224.155 21.2711L224.967 20.6875ZM223.078 19.2102L222.66 20.1188L223.078 19.2102ZM220.365 18.2159L220.078 19.1738L220.088 19.1767L220.365 18.2159ZM216.956 17.1932L216.666 18.1503L216.669 18.151L216.956 17.1932ZM212.027 14.3949L211.292 15.0727L211.295 15.0758L212.027 14.3949ZM210.82 9.63636L209.834 9.46454L209.833 9.47173L209.832 9.47893L210.82 9.63636ZM212.879 5.375L213.623 6.04333L213.626 6.04044L212.879 5.375ZM216.928 2.53409L217.313 3.45686L217.318 3.45491L216.928 2.53409ZM226.942 2.53409L226.487 3.42471L226.492 3.42725L226.942 2.53409ZM229.925 5.33239L229.048 5.8127L229.049 5.81565L229.925 5.33239ZM230.649 9.40909V10.4091H231.544L231.643 9.51952L230.649 9.40909ZM228.24 9.40909C228.24 7.60519 227.63 6.10137 226.307 5.06938L225.077 6.64653C225.818 7.22439 226.24 8.088 226.24 9.40909H228.24ZM226.311 5.07289C225.051 4.07849 223.411 3.63636 221.501 3.63636V5.63636C223.114 5.63636 224.268 6.00863 225.072 6.64302L226.311 5.07289ZM221.501 3.63636C220.105 3.63636 218.815 3.86245 217.647 4.33406L218.396 6.18866C219.292 5.82694 220.322 5.63636 221.501 5.63636V3.63636ZM217.647 4.33406C216.493 4.80007 215.517 5.45509 214.748 6.31275L216.238 7.64747C216.776 7.0468 217.486 6.55599 218.396 6.18866L217.647 4.33406ZM214.748 6.31275C213.973 7.17791 213.482 8.18033 213.299 9.30478L215.272 9.62704C215.392 8.89543 215.706 8.24064 216.238 7.64747L214.748 6.31275ZM213.298 9.30933C213.15 10.2407 213.234 11.1321 213.636 11.922L215.418 11.0155C215.252 10.688 215.175 10.2442 215.273 9.62249L213.298 9.30933ZM213.639 11.9282C213.999 12.6239 214.509 13.2038 215.156 13.6623L216.313 12.0309C215.918 11.7508 215.624 11.4121 215.415 11.0093L213.639 11.9282ZM215.173 13.6741C215.766 14.0765 216.401 14.4094 217.075 14.6729L217.803 12.81C217.265 12.6 216.763 12.3364 216.296 12.0191L215.173 13.6741ZM217.088 14.6778C217.716 14.9132 218.303 15.1076 218.847 15.259L219.383 13.3319C218.905 13.1992 218.374 13.0243 217.79 12.8051L217.088 14.6778ZM218.845 15.2584L221.686 16.0539L222.226 14.1279L219.385 13.3325L218.845 15.2584ZM221.686 16.0539C222.354 16.2407 223.109 16.5023 223.955 16.8426L224.701 14.987C223.805 14.6265 222.979 14.3389 222.226 14.1279L221.686 16.0539ZM223.955 16.8426C224.733 17.1553 225.463 17.5832 226.147 18.1303L227.396 16.5686C226.565 15.9036 225.666 15.375 224.701 14.987L223.955 16.8426ZM226.153 18.1351C226.77 18.6216 227.248 19.2496 227.584 20.0411L229.425 19.26C228.965 18.1765 228.287 17.2704 227.39 16.5638L226.153 18.1351ZM227.587 20.049C227.895 20.7572 227.994 21.6993 227.788 22.9379L229.761 23.2667C230.009 21.7779 229.928 20.4189 229.421 19.2522L227.587 20.049ZM227.788 22.9359C227.552 24.3329 226.978 25.5941 226.052 26.7326L227.604 27.9947C228.742 26.5953 229.466 25.0156 229.76 23.2686L227.788 22.9359ZM226.05 26.7361C225.139 27.8658 223.92 28.783 222.36 29.4752L223.171 31.3032C224.983 30.4992 226.472 29.3993 227.607 27.9912L226.05 26.7361ZM222.358 29.476C220.835 30.1559 219.023 30.5114 216.899 30.5114V32.5114C219.245 32.5114 221.344 32.1188 223.173 31.3024L222.358 29.476ZM216.899 30.5114C214.918 30.5114 213.322 30.1909 212.071 29.599L211.216 31.4067C212.806 32.1595 214.714 32.5114 216.899 32.5114V30.5114ZM212.074 29.6001C210.823 29.0044 209.949 28.2006 209.391 27.2024L207.646 28.1783C208.432 29.5854 209.641 30.6566 211.213 31.4056L212.074 29.6001ZM209.394 27.2076C208.844 26.2085 208.611 25.0192 208.747 23.5948L206.756 23.4052C206.589 25.1626 206.868 26.7669 207.643 28.1731L209.394 27.2076ZM207.751 24.5H211.388V22.5H207.751V24.5ZM210.391 23.4141C210.281 24.6959 210.53 25.8624 211.236 26.8205L212.846 25.6341C212.492 25.1528 212.305 24.5011 212.384 23.5859L210.391 23.4141ZM211.24 26.8256C211.901 27.7112 212.808 28.3483 213.91 28.756L214.604 26.8803C213.812 26.5873 213.242 26.1638 212.842 25.629L211.24 26.8256ZM213.918 28.7591C214.989 29.1444 216.157 29.3295 217.411 29.3295V27.3295C216.354 27.3295 215.419 27.1738 214.596 26.8773L213.918 28.7591ZM217.411 29.3295C218.865 29.3295 220.228 29.0937 221.49 28.6099L220.774 26.7424C219.763 27.1298 218.646 27.3295 217.411 27.3295V29.3295ZM221.494 28.6083C222.759 28.117 223.835 27.4249 224.697 26.519L223.249 25.1401C222.615 25.8062 221.797 26.3451 220.77 26.744L221.494 28.6083ZM224.697 26.5192C225.591 25.5809 226.149 24.469 226.352 23.2041L224.378 22.8868C224.24 23.7431 223.87 24.4872 223.249 25.1399L224.697 26.5192ZM226.35 23.2192C226.552 22.0748 226.417 20.9914 225.779 20.1039L224.155 21.2711C224.389 21.5958 224.519 22.0843 224.38 22.8717L226.35 23.2192ZM225.779 20.1039C225.223 19.3299 224.443 18.7373 223.496 18.3017L222.66 20.1188C223.361 20.4407 223.84 20.833 224.155 21.2711L225.779 20.1039ZM223.496 18.3017C222.621 17.8995 221.669 17.5513 220.642 17.2551L220.088 19.1767C221.031 19.4487 221.887 19.7634 222.66 20.1188L223.496 18.3017ZM220.652 17.2581L217.243 16.2354L216.669 18.151L220.078 19.1737L220.652 17.2581ZM217.246 16.2361C215.197 15.616 213.73 14.7577 212.759 13.714L211.295 15.0758C212.578 16.4563 214.397 17.4635 216.666 18.1503L217.246 16.2361ZM212.762 13.7171C211.895 12.7767 211.532 11.5203 211.807 9.79379L209.832 9.47893C209.482 11.6729 209.924 13.5889 211.292 15.0727L212.762 13.7171ZM211.805 9.80819C212.057 8.36139 212.661 7.11371 213.623 6.04332L212.135 4.70668C210.919 6.06053 210.15 7.65376 209.834 9.46454L211.805 9.80819ZM213.626 6.04044C214.609 4.93786 215.832 4.07541 217.313 3.45685L216.542 1.61133C214.804 2.33747 213.328 3.36896 212.133 4.70956L213.626 6.04044ZM217.318 3.45491C218.797 2.82852 220.396 2.51136 222.126 2.51136V0.511362C220.145 0.511362 218.278 0.876026 216.538 1.61327L217.318 3.45491ZM222.126 2.51136C223.882 2.51136 225.323 2.83055 226.487 3.4247L227.397 1.64349C225.89 0.873991 224.121 0.511362 222.126 0.511362V2.51136ZM226.492 3.42725C227.665 4.01788 228.501 4.81479 229.048 5.8127L230.802 4.85207C230.041 3.46362 228.889 2.39499 227.392 1.64093L226.492 3.42725ZM229.049 5.81565C229.589 6.79359 229.806 7.93979 229.655 9.29866L231.643 9.51952C231.833 7.81021 231.567 6.23861 230.8 4.84912L229.049 5.81565ZM230.649 8.40909H227.24V10.4091H230.649V8.40909Z" fill="black" mask="url(#path-1-outside-1_1_3)"/>
<defs>
<filter id="filter0_i_1_3" x="0.750458" y="0.51136" width="230.952" height="36" filterUnits="userSpaceOnUse" color-interpolation-filters="sRGB">
<feFlood flood-opacity="0" result="BackgroundImageFix"/>
<feBlend mode="normal" in="SourceGraphic" in2="BackgroundImageFix" result="shape"/>
<feColorMatrix in="SourceAlpha" type="matrix" values="0 0 0 0 0 0 0 0 0 0 0 0 0 0 0 0 0 0 127 0" result="hardAlpha"/>
<feOffset dy="4"/>
<feGaussianBlur stdDeviation="2"/>
<feComposite in2="hardAlpha" operator="arithmetic" k2="-1" k3="1"/>
<feColorMatrix type="matrix" values="0 0 0 0 0 0 0 0 0 0 0 0 0 0 0 0 0 0 0.25 0"/>
<feBlend mode="normal" in2="shape" result="effect1_innerShadow_1_3"/>
</filter>
</defs>
</svg>
